<svg xmlns="http://www.w3.org/2000/svg" width="24" height="25" fill="none"><path fill="#4285F4" d="M23.6173 12.3172c0-.9907-.0804-1.7137-.2544-2.4634H12.0498v4.4716h6.6405c-.1338 1.1112-.8568 2.7848-2.4634 3.9093l-.0225.1497 3.577 2.7711.2478.0247c2.276-2.102 3.5881-5.1947 3.5881-8.863Z"/><path fill="#34A853" d="M12.0493 24.0989c3.2534 0 5.9845-1.0711 7.9794-2.9186l-3.8022-2.9455c-1.0175.7096-2.3832 1.205-4.1772 1.205-3.1863 0-5.8907-2.1019-6.8548-5.0072l-.1413.012-3.7194 2.8785-.0486.1352c1.9814 3.9361 6.0514 6.6406 10.7641 6.6406Z"/><path fill="#FBBC05" d="M5.1946 14.4325c-.2544-.7497-.4016-1.553-.4016-2.3831 0-.8301.1472-1.6334.3882-2.383l-.0067-.1598-3.766-2.9247-.1233.0586C.4686 8.274 0 10.1081 0 12.0494s.4686 3.7755 1.2852 5.4088l3.9094-3.0257Z"/><path fill="#EB4335" d="M12.0493 4.659c2.2626 0 3.7889.9774 4.6591 1.7942l3.4006-3.3203C18.0205 1.1915 15.3027 0 12.0493 0 7.3366 0 3.2666 2.7044 1.2852 6.6405l3.896 3.0258c.9774-2.9052 3.6818-5.0072 6.8681-5.0072Z"/></svg>