<svg xmlns="http://www.w3.org/2000/svg" width="48" height="49" fill="none"><g clip-path="url(#a)"><path fill="#6B7CFF" fill-rule="evenodd" d="M43.094 8.4155 24.719.7864a1.875 1.875 0 0 0-1.438 0L4.906 8.4154a1.875 1.875 0 0 0-1.156 1.7317v9.2743c0 12.7699 7.7183 24.2568 19.5414 29.0826a1.875 1.875 0 0 0 1.4172 0C36.5315 43.6783 44.25 32.1914 44.25 19.4214v-9.2743a1.875 1.875 0 0 0-1.156-1.7316ZM21.5936 26.24l9.3566-9.817c.8501-.8919 2.2284-.892 3.0786 0 .8501.892.85 2.3382-.0001 3.2301l-10.8958 11.432c-.8503.8921-2.2286.8918-3.0786 0l-6.0837-6.3831c-.8501-.892-.8501-2.3382 0-3.2301.8502-.8919 2.2285-.892 3.0786 0l4.5444 4.7681Z" clip-rule="evenodd"/></g><defs><clipPath id="a"><path fill="#fff" d="M0 .643h48v48H0z"/></clipPath></defs></svg>