<svg xmlns="http://www.w3.org/2000/svg" width="48" height="49" fill="none"><g fill="#6B7CFF" clip-path="url(#a)"><path d="M24.0005.643c-10.1195 0-18.353 8.2336-18.353 18.3531V35.937c0 2.3357 1.8999 4.2356 4.2352 4.2356 2.3357 0 4.2356-1.8999 4.2356-4.2356V21.8196c0-2.3353-1.8999-4.2352-4.2356-4.2352-.4754 0-.925.0963-1.3524.2413.6024-8.0167 7.3033-14.3592 15.4702-14.3592 8.1625 0 14.8616 6.3366 15.4695 14.3478-.4248-.1454-.8771-.2299-1.3517-.2299-2.3357 0-4.2356 1.8999-4.2356 4.2352V35.937c0 2.3357 1.8999 4.2356 4.2356 4.2356.4973 0 .9679-.1018 1.4117-.26v1.6718c0 .7789-.6342 1.4117-1.4117 1.4117H27.9757c-.5848-1.6399-2.1372-2.8235-3.9752-2.8235-2.3353 0-4.2352 1.8999-4.2352 4.2352 0 2.3354 1.8999 4.2353 4.2352 4.2353 1.838 0 3.3904-1.184 3.9752-2.8235h10.1426c2.3353 0 4.2352-1.8999 4.2352-4.2352V18.9961c0-10.1195-8.2335-18.353-18.353-18.353ZM45.1768 20.6678v16.4209c1.6395-.5844 2.8234-2.1368 2.8234-3.9752v-8.4704c0-1.838-1.1839-3.3904-2.8234-3.9753ZM0 24.6431v8.4704c0 1.8384 1.184 3.3908 2.8235 3.9753V20.6679C1.184 21.2527 0 22.8051 0 24.6431Z"/></g><defs><clipPath id="a"><path fill="#fff" d="M0 .643h48v48H0z"/></clipPath></defs></svg>