<svg xmlns="http://www.w3.org/2000/svg" width="48" height="48" fill="none"><circle cx="24" cy="24" r="24" fill="#6B7CFF"/><path fill="#fff" d="M17.63 15.8333c.07 1.0384.245 2.0534.525 3.0217l-1.4 1.4c-.4783-1.4-.7817-2.8817-.8867-4.4217H17.63Zm11.5033 14.0234c.9917.28 2.0067.455 3.0334.525V32.12c-1.54-.105-3.0217-.4083-4.4334-.875l1.4-1.3883ZM18.75 13.5h-4.0833c-.6417 0-1.1667.525-1.1667 1.1667C13.5 25.6217 22.3783 34.5 33.3333 34.5c.6417 0 1.1667-.525 1.1667-1.1667v-4.0716c0-.6417-.525-1.1667-1.1667-1.1667-1.4466 0-2.8583-.2333-4.165-.665-.1166-.0467-.245-.0583-.3616-.0583-.3034 0-.595.1166-.8284.3383l-2.5666 2.5667c-3.3017-1.6917-6.0084-4.3867-7.6884-7.6884l2.5667-2.5666c.3267-.3267.42-.7817.2917-1.19-.4317-1.3067-.665-2.7067-.665-4.165 0-.6417-.525-1.1667-1.1667-1.1667Z"/></svg>