<svg xmlns="http://www.w3.org/2000/svg" width="20" height="20" fill="none"><g clip-path="url(#a)"><path fill="#fff" d="M6.2918 18.1251c7.5453 0 11.6734-6.2527 11.6734-11.6734 0-.1758-.0039-.3555-.0117-.5313A8.332 8.332 0 0 0 20 3.7962a8.0905 8.0905 0 0 1-2.3551.6445 4.1251 4.1251 0 0 0 1.8043-2.2691 8.2474 8.2474 0 0 1-2.6047.9957 4.1084 4.1084 0 0 0-6.733 1.1173 4.1088 4.1088 0 0 0-.2619 2.6241 11.6538 11.6538 0 0 1-8.4555-4.284 4.1078 4.1078 0 0 0 1.2696 5.4754 4.1082 4.1082 0 0 1-1.859-.5117v.0508a4.1016 4.1016 0 0 0 3.2922 4.0234 4.0783 4.0783 0 0 1-1.8512.0703 4.1114 4.1114 0 0 0 3.8313 2.8516A8.2298 8.2298 0 0 1 0 16.2821a11.6399 11.6399 0 0 0 6.2918 1.843Z"/></g><defs><clipPath id="a"><path fill="#fff" d="M0 0h20v20H0z"/></clipPath></defs></svg>