<svg xmlns="http://www.w3.org/2000/svg" width="20" height="20" fill="none"><g fill="#fff" clip-path="url(#a)"><path d="M10 1.8008c2.6719 0 2.9883.0117 4.0391.0586.9765.043 1.5039.207 1.8554.3437.4649.1797.8008.3985 1.1485.7461.3515.3516.5664.6836.7461 1.1485.1367.3515.3007.8828.3437 1.8554.0469 1.0547.0586 1.3711.0586 4.039 0 2.672-.0117 2.9884-.0586 4.0392-.043.9765-.207 1.5039-.3437 1.8554-.1797.4649-.3985.8008-.7461 1.1485-.3516.3515-.6836.5664-1.1485.7461-.3515.1367-.8828.3007-1.8554.3437-1.0547.0469-1.3711.0586-4.0391.0586-2.6719 0-2.9883-.0117-4.039-.0586-.9766-.043-1.504-.207-1.8555-.3437-.4649-.1797-.8008-.3985-1.1485-.7461-.3515-.3516-.5664-.6836-.746-1.1485-.1368-.3515-.3008-.8828-.3438-1.8554-.0469-1.0547-.0586-1.3711-.0586-4.0391 0-2.6719.0117-2.9883.0586-4.039.043-.9766.207-1.504.3437-1.8555.1797-.4649.3985-.8008.7461-1.1485.3516-.3515.6836-.5664 1.1485-.746.3515-.1368.8828-.3009 1.8554-.3438C7.0117 1.8125 7.3281 1.8008 10 1.8008ZM10 0C7.2852 0 6.9453.0117 5.879.0586 4.8163.1055 4.086.2773 3.453.5234c-.6601.2579-1.2187.5977-1.7734 1.1563C1.121 2.2344.7813 2.793.5234 3.4492.2774 4.086.1054 4.8125.0586 5.875.0117 6.9453 0 7.2852 0 10c0 2.7148.0117 3.0547.0586 4.1211.0469 1.0625.2187 1.793.4648 2.4258.2579.6601.5977 1.2187 1.1563 1.7734.5547.5547 1.1133.8985 1.7695 1.1524.6367.2461 1.3633.4179 2.4258.4648 1.0664.0469 1.4063.0586 4.121.0586 2.7149 0 3.0548-.0117 4.1212-.0586 1.0625-.0469 1.793-.2187 2.4258-.4648.6562-.2539 1.2148-.5977 1.7695-1.1524.5547-.5547.8984-1.1133 1.1523-1.7695.2461-.6367.418-1.3633.4649-2.4258.0469-1.0664.0586-1.4062.0586-4.1211 0-2.7148-.0117-3.0547-.0586-4.121-.0469-1.0626-.2188-1.793-.4649-2.4259-.246-.664-.5859-1.2226-1.1445-1.7773-.5547-.5547-1.1133-.8984-1.7695-1.1524-.6367-.246-1.3633-.418-2.4258-.4648C13.0547.0117 12.7148 0 10 0Z"/><path d="M10 4.8633C7.164 4.8633 4.8633 7.164 4.8633 10S7.164 15.1367 10 15.1367 15.1367 12.8359 15.1367 10c0-2.836-2.3008-5.1367-5.1367-5.1367Zm0 8.4687c-1.8398 0-3.332-1.4922-3.332-3.332 0-1.8398 1.4922-3.332 3.332-3.332 1.8398 0 3.332 1.4922 3.332 3.332 0 1.8398-1.4922 3.332-3.332 3.332ZM16.5391 4.6602c0 .664-.5391 1.1992-1.1993 1.1992-.664 0-1.1992-.539-1.1992-1.1992 0-.6641.5391-1.1993 1.1992-1.1993.6602 0 1.1993.5391 1.1993 1.1993Z"/></g><defs><clipPath id="a"><path fill="#fff" d="M0 0h20v20H0z"/></clipPath></defs></svg>