<svg xmlns="http://www.w3.org/2000/svg" width="20" height="20" fill="none"><g clip-path="url(#a)"><path fill="#fff" d="M20 10c0-5.5229-4.4771-10-10-10S0 4.4771 0 10c0 4.9912 3.6568 9.1283 8.4375 9.8785v-6.9879h-2.539V10h2.539V7.7969c0-2.5063 1.493-3.8906 3.7771-3.8906 1.0938 0 2.2385.1953 2.2385.1953v2.4609h-1.2609c-1.2422 0-1.6297.7709-1.6297 1.5625V10h2.7734l-.4433 2.8906h-2.3301v6.9879C16.3432 19.1283 20 14.9912 20 10Z"/></g><defs><clipPath id="a"><path fill="#fff" d="M0 0h20v20H0z"/></clipPath></defs></svg>