<svg xmlns="http://www.w3.org/2000/svg" width="20" height="20" fill="none"><g clip-path="url(#a)"><path fill="#fff" d="M18.5195 0H1.4765C.6603 0 0 .6445 0 1.4414v17.1133C0 19.3516.6602 20 1.4766 20h17.0429C19.3359 20 20 19.3516 20 18.5586V1.4414C20 .6445 19.3359 0 18.5195 0ZM5.9335 17.043H2.9649V7.496h2.9688v9.547ZM4.4493 6.1953c-.9531 0-1.7226-.7695-1.7226-1.7187 0-.9493.7695-1.7188 1.7226-1.7188.9492 0 1.7188.7695 1.7188 1.7188 0 .9453-.7696 1.7187-1.7188 1.7187ZM17.043 17.043h-2.9649v-4.6407c0-1.1054-.0195-2.5312-1.5429-2.5312-1.543 0-1.7774 1.207-1.7774 2.4531v4.7188h-2.961V7.496h2.8438v1.3048h.0391c.3945-.75 1.3633-1.543 2.8047-1.543 3.0039 0 3.5586 1.9766 3.5586 4.5469v5.2383Z"/></g><defs><clipPath id="a"><path fill="#fff" d="M0 0h20v20H0z"/></clipPath></defs></svg>